
    <svg
      width="522"
      height="937"
      viewBox="0 0 522 937"
      fill="none"
      xmlns="http://www.w3.org/2000/svg"
      
    >
      <g opacity="0.35">
        <path
          d="M-52.8279 1.30054L1.67371 94.1H-107.329L-52.8279 1.30054Z"
          fill="#C4C4C4"
          fill-opacity="0.1"
        />
        <path
          d="M53.8364 1.30054L108.338 94.1H-0.66515L53.8364 1.30054Z"
          fill="#C4C4C4"
          fill-opacity="0.1"
        />
        <path
          d="M160.504 1.30054L215.006 94.1H106.003L160.504 1.30054Z"
          fill="#C4C4C4"
          fill-opacity="0.1"
        />
        <path
          d="M267.172 1.30054L321.673 94.1H212.67L267.172 1.30054Z"
          fill="#C4C4C4"
          fill-opacity="0.1"
        />
        <path
          d="M373.836 1.30054L428.337 94.1H319.334L373.836 1.30054Z"
          fill="#C4C4C4"
          fill-opacity="0.1"
        />
        <path
          d="M480.503 1.30054L535.005 94.1H426.002L480.503 1.30054Z"
          fill="#C4C4C4"
          fill-opacity="0.1"
        />
        <path
          d="M0.504257 95.1724L-53.9973 0.772865L55.0058 0.772865L0.504257 95.1724Z"
          fill="url(#paint0_linear_4674_35274)"
          fill-opacity="0.4"
        />
        <path
          d="M107.172 95.1724L52.6701 0.772865L161.673 0.772865L107.172 95.1724Z"
          fill="url(#paint1_linear_4674_35274)"
          fill-opacity="0.4"
        />
        <path
          d="M213.839 95.1724L159.338 0.772865L268.341 0.772865L213.839 95.1724Z"
          fill="url(#paint2_linear_4674_35274)"
          fill-opacity="0.4"
        />
        <path
          d="M320.504 95.1724L266.002 0.772865L375.005 0.772865L320.504 95.1724Z"
          fill="url(#paint3_linear_4674_35274)"
          fill-opacity="0.4"
        />
        <path
          d="M427.168 95.1724L372.666 0.772865L481.67 0.772865L427.168 95.1724Z"
          fill="url(#paint4_linear_4674_35274)"
          fill-opacity="0.4"
        />
        <path
          d="M533.836 95.1724L479.334 0.772865L588.337 0.772865L533.836 95.1724Z"
          fill="url(#paint5_linear_4674_35274)"
          fill-opacity="0.4"
        />
        <path
          d="M2.63928 93.0369L57.1409 185.836H-51.8623L2.63928 93.0369Z"
          fill="#C4C4C4"
          fill-opacity="0.1"
        />
        <path
          d="M109.307 93.0369L163.808 185.836H54.8051L109.307 93.0369Z"
          fill="#C4C4C4"
          fill-opacity="0.1"
        />
        <path
          d="M215.971 93.0369L270.473 185.836H161.469L215.971 93.0369Z"
          fill="#C4C4C4"
          fill-opacity="0.1"
        />
        <path
          d="M322.639 93.0369L377.14 185.836H268.137L322.639 93.0369Z"
          fill="#C4C4C4"
          fill-opacity="0.1"
        />
        <path
          d="M429.303 93.0369L483.804 185.836H374.801L429.303 93.0369Z"
          fill="#C4C4C4"
          fill-opacity="0.1"
        />
        <path
          d="M535.97 93.0369L590.472 185.836H481.469L535.97 93.0369Z"
          fill="#C4C4C4"
          fill-opacity="0.1"
        />
        <path
          d="M-50.6932 186.908L-105.195 92.5089L3.80838 92.5089L-50.6932 186.908Z"
          fill="url(#paint6_linear_4674_35274)"
          fill-opacity="0.4"
        />
        <path
          d="M55.9745 186.908L1.47293 92.5089L110.476 92.5089L55.9745 186.908Z"
          fill="url(#paint7_linear_4674_35274)"
          fill-opacity="0.4"
        />
        <path
          d="M162.639 186.908L108.137 92.5089L217.14 92.5089L162.639 186.908Z"
          fill="url(#paint8_linear_4674_35274)"
          fill-opacity="0.4"
        />
        <path
          d="M269.303 186.908L214.801 92.5089L323.805 92.5089L269.303 186.908Z"
          fill="url(#paint9_linear_4674_35274)"
          fill-opacity="0.4"
        />
        <path
          d="M375.971 186.908L321.469 92.5089L430.472 92.5089L375.971 186.908Z"
          fill="url(#paint10_linear_4674_35274)"
          fill-opacity="0.4"
        />
        <path
          d="M482.638 186.908L428.137 92.5089L537.14 92.5089L482.638 186.908Z"
          fill="url(#paint11_linear_4674_35274)"
          fill-opacity="0.4"
        />
        <path
          d="M-50.6966 186.902L3.80499 279.701H-105.198L-50.6966 186.902Z"
          fill="#C4C4C4"
          fill-opacity="0.1"
        />
        <path
          d="M55.9677 186.902L110.469 279.701H1.46612L55.9677 186.902Z"
          fill="#C4C4C4"
          fill-opacity="0.1"
        />
        <path
          d="M162.635 186.902L217.137 279.701H108.134L162.635 186.902Z"
          fill="#C4C4C4"
          fill-opacity="0.1"
        />
        <path
          d="M269.303 186.902L323.804 279.701H214.801L269.303 186.902Z"
          fill="#C4C4C4"
          fill-opacity="0.1"
        />
        <path
          d="M375.967 186.902L430.469 279.701H321.466L375.967 186.902Z"
          fill="#C4C4C4"
          fill-opacity="0.1"
        />
        <path
          d="M482.631 186.902L537.133 279.701H428.13L482.631 186.902Z"
          fill="#C4C4C4"
          fill-opacity="0.1"
        />
        <path
          d="M2.63554 280.773L-51.866 186.374H57.1371L2.63554 280.773Z"
          fill="url(#paint12_linear_4674_35274)"
          fill-opacity="0.4"
        />
        <path
          d="M109.3 280.773L54.7983 186.374H163.801L109.3 280.773Z"
          fill="url(#paint13_linear_4674_35274)"
          fill-opacity="0.4"
        />
        <path
          d="M215.967 280.773L161.466 186.374H270.469L215.967 280.773Z"
          fill="url(#paint14_linear_4674_35274)"
          fill-opacity="0.4"
        />
        <path
          d="M322.635 280.773L268.133 186.374H377.137L322.635 280.773Z"
          fill="url(#paint15_linear_4674_35274)"
          fill-opacity="0.4"
        />
        <path
          d="M429.299 280.773L374.798 186.374H483.801L429.299 280.773Z"
          fill="url(#paint16_linear_4674_35274)"
          fill-opacity="0.4"
        />
        <path
          d="M535.967 280.773L481.465 186.374H590.469L535.967 280.773Z"
          fill="url(#paint17_linear_4674_35274)"
          fill-opacity="0.4"
        />
        <path
          d="M2.63928 280.761L57.1409 373.561H-51.8623L2.63928 280.761Z"
          fill="#C4C4C4"
          fill-opacity="0.1"
        />
        <path
          d="M109.307 280.761L163.808 373.561H54.8051L109.307 280.761Z"
          fill="#C4C4C4"
          fill-opacity="0.1"
        />
        <path
          d="M215.971 280.761L270.473 373.561H161.469L215.971 280.761Z"
          fill="#C4C4C4"
          fill-opacity="0.1"
        />
        <path
          d="M322.639 280.761L377.14 373.561H268.137L322.639 280.761Z"
          fill="#C4C4C4"
          fill-opacity="0.1"
        />
        <path
          d="M429.303 280.761L483.804 373.561H374.801L429.303 280.761Z"
          fill="#C4C4C4"
          fill-opacity="0.1"
        />
        <path
          d="M535.97 280.761L590.472 373.561H481.469L535.97 280.761Z"
          fill="#C4C4C4"
          fill-opacity="0.1"
        />
        <path
          d="M-50.6932 374.633L-105.195 280.233H3.80838L-50.6932 374.633Z"
          fill="url(#paint18_linear_4674_35274)"
          fill-opacity="0.4"
        />
        <path
          d="M55.9745 374.633L1.47293 280.233H110.476L55.9745 374.633Z"
          fill="url(#paint19_linear_4674_35274)"
          fill-opacity="0.4"
        />
        <path
          d="M162.639 374.633L108.137 280.233H217.14L162.639 374.633Z"
          fill="url(#paint20_linear_4674_35274)"
          fill-opacity="0.4"
        />
        <path
          d="M269.303 374.633L214.801 280.233H323.805L269.303 374.633Z"
          fill="url(#paint21_linear_4674_35274)"
          fill-opacity="0.4"
        />
        <path
          d="M375.971 374.633L321.469 280.233H430.472L375.971 374.633Z"
          fill="url(#paint22_linear_4674_35274)"
          fill-opacity="0.4"
        />
        <path
          d="M482.638 374.633L428.137 280.233H537.14L482.638 374.633Z"
          fill="url(#paint23_linear_4674_35274)"
          fill-opacity="0.4"
        />
        <path
          d="M-50.6966 374.632L3.80498 467.431H-105.198L-50.6966 374.632Z"
          fill="#C4C4C4"
          fill-opacity="0.1"
        />
        <path
          d="M55.9677 374.632L110.469 467.431H1.46612L55.9677 374.632Z"
          fill="#C4C4C4"
          fill-opacity="0.1"
        />
        <path
          d="M162.635 374.632L217.137 467.431H108.134L162.635 374.632Z"
          fill="#C4C4C4"
          fill-opacity="0.1"
        />
        <path
          d="M269.303 374.632L323.804 467.431H214.801L269.303 374.632Z"
          fill="#C4C4C4"
          fill-opacity="0.1"
        />
        <path
          d="M375.967 374.632L430.469 467.431H321.466L375.967 374.632Z"
          fill="#C4C4C4"
          fill-opacity="0.1"
        />
        <path
          d="M482.635 374.632L537.136 467.431H428.133L482.635 374.632Z"
          fill="#C4C4C4"
          fill-opacity="0.1"
        />
        <path
          d="M2.63554 468.503L-51.866 374.104H57.1371L2.63554 468.503Z"
          fill="url(#paint24_linear_4674_35274)"
          fill-opacity="0.4"
        />
        <path
          d="M109.303 468.503L54.8014 374.104H163.805L109.303 468.503Z"
          fill="url(#paint25_linear_4674_35274)"
          fill-opacity="0.4"
        />
        <path
          d="M215.971 468.503L161.469 374.104H270.472L215.971 468.503Z"
          fill="url(#paint26_linear_4674_35274)"
          fill-opacity="0.4"
        />
        <path
          d="M322.635 468.503L268.133 374.104H377.137L322.635 468.503Z"
          fill="url(#paint27_linear_4674_35274)"
          fill-opacity="0.4"
        />
        <path
          d="M429.299 468.503L374.798 374.104H483.801L429.299 468.503Z"
          fill="url(#paint28_linear_4674_35274)"
          fill-opacity="0.4"
        />
        <path
          d="M535.967 468.503L481.465 374.104H590.469L535.967 468.503Z"
          fill="url(#paint29_linear_4674_35274)"
          fill-opacity="0.4"
        />
        <path
          d="M2.63928 468.497L57.1409 561.296H-51.8623L2.63928 468.497Z"
          fill="#C4C4C4"
          fill-opacity="0.1"
        />
        <path
          d="M109.307 468.497L163.808 561.296H54.8051L109.307 468.497Z"
          fill="#C4C4C4"
          fill-opacity="0.1"
        />
        <path
          d="M215.971 468.497L270.473 561.296H161.469L215.971 468.497Z"
          fill="#C4C4C4"
          fill-opacity="0.1"
        />
        <path
          d="M322.639 468.497L377.14 561.296H268.137L322.639 468.497Z"
          fill="#C4C4C4"
          fill-opacity="0.1"
        />
        <path
          d="M429.303 468.497L483.804 561.296H374.801L429.303 468.497Z"
          fill="#C4C4C4"
          fill-opacity="0.1"
        />
        <path
          d="M535.97 468.497L590.472 561.296H481.469L535.97 468.497Z"
          fill="#C4C4C4"
          fill-opacity="0.1"
        />
        <path
          d="M-50.6932 562.368L-105.195 467.969H3.80838L-50.6932 562.368Z"
          fill="url(#paint30_linear_4674_35274)"
          fill-opacity="0.4"
        />
        <path
          d="M55.9745 562.368L1.47293 467.969H110.476L55.9745 562.368Z"
          fill="url(#paint31_linear_4674_35274)"
          fill-opacity="0.4"
        />
        <path
          d="M162.639 562.368L108.137 467.969H217.14L162.639 562.368Z"
          fill="url(#paint32_linear_4674_35274)"
          fill-opacity="0.4"
        />
        <path
          d="M269.303 562.368L214.801 467.969H323.805L269.303 562.368Z"
          fill="url(#paint33_linear_4674_35274)"
          fill-opacity="0.4"
        />
        <path
          d="M375.971 562.368L321.469 467.969H430.472L375.971 562.368Z"
          fill="url(#paint34_linear_4674_35274)"
          fill-opacity="0.4"
        />
        <path
          d="M482.638 562.368L428.137 467.969H537.14L482.638 562.368Z"
          fill="url(#paint35_linear_4674_35274)"
          fill-opacity="0.4"
        />
        <path
          d="M-50.6964 562.361L3.80521 655.16H-105.198L-50.6964 562.361Z"
          fill="#C4C4C4"
          fill-opacity="0.1"
        />
        <path
          d="M55.968 562.361L110.47 655.16H1.46643L55.968 562.361Z"
          fill="#C4C4C4"
          fill-opacity="0.1"
        />
        <path
          d="M162.635 562.361L217.137 655.16H108.134L162.635 562.361Z"
          fill="#C4C4C4"
          fill-opacity="0.1"
        />
        <path
          d="M269.303 562.361L323.805 655.16H214.802L269.303 562.361Z"
          fill="#C4C4C4"
          fill-opacity="0.1"
        />
        <path
          d="M375.967 562.361L430.469 655.16H321.466L375.967 562.361Z"
          fill="#C4C4C4"
          fill-opacity="0.1"
        />
        <path
          d="M482.635 562.361L537.136 655.16H428.133L482.635 562.361Z"
          fill="#C4C4C4"
          fill-opacity="0.1"
        />
        <path
          d="M2.63579 656.233L-51.8658 561.833H57.1374L2.63579 656.233Z"
          fill="url(#paint36_linear_4674_35274)"
          fill-opacity="0.4"
        />
        <path
          d="M109.303 656.233L54.8017 561.833H163.805L109.303 656.233Z"
          fill="url(#paint37_linear_4674_35274)"
          fill-opacity="0.4"
        />
        <path
          d="M215.971 656.233L161.469 561.833H270.472L215.971 656.233Z"
          fill="url(#paint38_linear_4674_35274)"
          fill-opacity="0.4"
        />
        <path
          d="M322.635 656.233L268.134 561.833H377.137L322.635 656.233Z"
          fill="url(#paint39_linear_4674_35274)"
          fill-opacity="0.4"
        />
        <path
          d="M429.3 656.233L374.798 561.833H483.801L429.3 656.233Z"
          fill="url(#paint40_linear_4674_35274)"
          fill-opacity="0.4"
        />
        <path
          d="M535.967 656.233L481.465 561.833H590.469L535.967 656.233Z"
          fill="url(#paint41_linear_4674_35274)"
          fill-opacity="0.4"
        />
        <path
          d="M2.63928 656.226L57.1409 749.025H-51.8623L2.63928 656.226Z"
          fill="#C4C4C4"
          fill-opacity="0.1"
        />
        <path
          d="M109.307 656.226L163.808 749.025H54.8051L109.307 656.226Z"
          fill="#C4C4C4"
          fill-opacity="0.1"
        />
        <path
          d="M215.971 656.226L270.473 749.025H161.469L215.971 656.226Z"
          fill="#C4C4C4"
          fill-opacity="0.1"
        />
        <path
          d="M322.639 656.226L377.14 749.025H268.137L322.639 656.226Z"
          fill="#C4C4C4"
          fill-opacity="0.1"
        />
        <path
          d="M429.303 656.226L483.804 749.025H374.801L429.303 656.226Z"
          fill="#C4C4C4"
          fill-opacity="0.1"
        />
        <path
          d="M535.97 656.226L590.472 749.025H481.469L535.97 656.226Z"
          fill="#C4C4C4"
          fill-opacity="0.1"
        />
        <path
          d="M-50.6932 750.097L-105.195 655.698H3.80838L-50.6932 750.097Z"
          fill="url(#paint42_linear_4674_35274)"
          fill-opacity="0.4"
        />
        <path
          d="M55.9745 750.097L1.47293 655.698H110.476L55.9745 750.097Z"
          fill="url(#paint43_linear_4674_35274)"
          fill-opacity="0.4"
        />
        <path
          d="M162.639 750.097L108.137 655.698H217.14L162.639 750.097Z"
          fill="url(#paint44_linear_4674_35274)"
          fill-opacity="0.4"
        />
        <path
          d="M269.303 750.097L214.801 655.698H323.805L269.303 750.097Z"
          fill="url(#paint45_linear_4674_35274)"
          fill-opacity="0.4"
        />
        <path
          d="M375.971 750.097L321.469 655.698H430.472L375.971 750.097Z"
          fill="url(#paint46_linear_4674_35274)"
          fill-opacity="0.4"
        />
        <path
          d="M482.638 750.097L428.137 655.698H537.14L482.638 750.097Z"
          fill="url(#paint47_linear_4674_35274)"
          fill-opacity="0.4"
        />
        <path
          d="M-50.6964 750.089L3.80518 842.889H-105.198L-50.6964 750.089Z"
          fill="#C4C4C4"
          fill-opacity="0.1"
        />
        <path
          d="M55.9679 750.089L110.469 842.889H1.46635L55.9679 750.089Z"
          fill="#C4C4C4"
          fill-opacity="0.1"
        />
        <path
          d="M162.635 750.089L217.137 842.889H108.134L162.635 750.089Z"
          fill="#C4C4C4"
          fill-opacity="0.1"
        />
        <path
          d="M269.303 750.089L323.805 842.889H214.801L269.303 750.089Z"
          fill="#C4C4C4"
          fill-opacity="0.1"
        />
        <path
          d="M375.967 750.089L430.469 842.889H321.466L375.967 750.089Z"
          fill="#C4C4C4"
          fill-opacity="0.1"
        />
        <path
          d="M482.635 750.089L537.137 842.889H428.134L482.635 750.089Z"
          fill="#C4C4C4"
          fill-opacity="0.1"
        />
        <path
          d="M2.63579 843.962L-51.8658 749.563H57.1374L2.63579 843.962Z"
          fill="url(#paint48_linear_4674_35274)"
          fill-opacity="0.4"
        />
        <path
          d="M109.303 843.962L54.8016 749.563H163.805L109.303 843.962Z"
          fill="url(#paint49_linear_4674_35274)"
          fill-opacity="0.4"
        />
        <path
          d="M215.971 843.962L161.469 749.563H270.472L215.971 843.962Z"
          fill="url(#paint50_linear_4674_35274)"
          fill-opacity="0.4"
        />
        <path
          d="M322.635 843.962L268.134 749.563H377.137L322.635 843.962Z"
          fill="url(#paint51_linear_4674_35274)"
          fill-opacity="0.4"
        />
        <path
          d="M429.3 843.962L374.798 749.563H483.801L429.3 843.962Z"
          fill="url(#paint52_linear_4674_35274)"
          fill-opacity="0.4"
        />
        <path
          d="M535.968 843.962L481.466 749.563H590.469L535.968 843.962Z"
          fill="url(#paint53_linear_4674_35274)"
          fill-opacity="0.4"
        />
        <path
          d="M2.63928 843.961L57.1409 936.76H-51.8623L2.63928 843.961Z"
          fill="#C4C4C4"
          fill-opacity="0.1"
        />
        <path
          d="M109.307 843.961L163.808 936.76H54.8051L109.307 843.961Z"
          fill="#C4C4C4"
          fill-opacity="0.1"
        />
        <path
          d="M215.971 843.961L270.473 936.76H161.469L215.971 843.961Z"
          fill="#C4C4C4"
          fill-opacity="0.1"
        />
        <path
          d="M322.639 843.961L377.14 936.76H268.137L322.639 843.961Z"
          fill="#C4C4C4"
          fill-opacity="0.1"
        />
        <path
          d="M429.303 843.961L483.804 936.76H374.801L429.303 843.961Z"
          fill="#C4C4C4"
          fill-opacity="0.1"
        />
        <path
          d="M535.97 843.961L590.472 936.76H481.469L535.97 843.961Z"
          fill="#C4C4C4"
          fill-opacity="0.1"
        />
        <path
          d="M-50.6932 937.832L-105.195 843.433H3.80838L-50.6932 937.832Z"
          fill="url(#paint54_linear_4674_35274)"
          fill-opacity="0.4"
        />
        <path
          d="M55.9745 937.832L1.47293 843.433H110.476L55.9745 937.832Z"
          fill="url(#paint55_linear_4674_35274)"
          fill-opacity="0.4"
        />
        <path
          d="M162.639 937.832L108.137 843.433H217.14L162.639 937.832Z"
          fill="url(#paint56_linear_4674_35274)"
          fill-opacity="0.4"
        />
        <path
          d="M269.303 937.832L214.801 843.433H323.805L269.303 937.832Z"
          fill="url(#paint57_linear_4674_35274)"
          fill-opacity="0.4"
        />
        <path
          d="M375.971 937.832L321.469 843.433H430.472L375.971 937.832Z"
          fill="url(#paint58_linear_4674_35274)"
          fill-opacity="0.4"
        />
        <path
          d="M482.638 937.832L428.137 843.433H537.14L482.638 937.832Z"
          fill="url(#paint59_linear_4674_35274)"
          fill-opacity="0.4"
        />
      </g>
      <defs>
        <linearGradient
          id="paint0_linear_4674_35274"
          x1="0.504257"
          y1="95.1724"
          x2="0.504257"
          y2="-30.6936"
          gradientUnits="userSpaceOnUse"
        >
          <stop stop-color="#B7AEAE" />
          <stop offset="1" stop-color="#C4C4C4" stop-opacity="0.67" />
        </linearGradient>
        <linearGradient
          id="paint1_linear_4674_35274"
          x1="107.172"
          y1="95.1724"
          x2="107.172"
          y2="-30.6936"
          gradientUnits="userSpaceOnUse"
        >
          <stop stop-color="#B7AEAE" />
          <stop offset="1" stop-color="#C4C4C4" stop-opacity="0.67" />
        </linearGradient>
        <linearGradient
          id="paint2_linear_4674_35274"
          x1="213.839"
          y1="95.1724"
          x2="213.839"
          y2="-30.6936"
          gradientUnits="userSpaceOnUse"
        >
          <stop stop-color="#B7AEAE" />
          <stop offset="1" stop-color="#C4C4C4" stop-opacity="0.67" />
        </linearGradient>
        <linearGradient
          id="paint3_linear_4674_35274"
          x1="320.504"
          y1="95.1724"
          x2="320.504"
          y2="-30.6936"
          gradientUnits="userSpaceOnUse"
        >
          <stop stop-color="#B7AEAE" />
          <stop offset="1" stop-color="#C4C4C4" stop-opacity="0.67" />
        </linearGradient>
        <linearGradient
          id="paint4_linear_4674_35274"
          x1="427.168"
          y1="95.1724"
          x2="427.168"
          y2="-30.6936"
          gradientUnits="userSpaceOnUse"
        >
          <stop stop-color="#B7AEAE" />
          <stop offset="1" stop-color="#C4C4C4" stop-opacity="0.67" />
        </linearGradient>
        <linearGradient
          id="paint5_linear_4674_35274"
          x1="533.836"
          y1="95.1724"
          x2="533.836"
          y2="-30.6936"
          gradientUnits="userSpaceOnUse"
        >
          <stop stop-color="#B7AEAE" />
          <stop offset="1" stop-color="#C4C4C4" stop-opacity="0.67" />
        </linearGradient>
        <linearGradient
          id="paint6_linear_4674_35274"
          x1="-50.6932"
          y1="186.908"
          x2="-50.6932"
          y2="61.0424"
          gradientUnits="userSpaceOnUse"
        >
          <stop stop-color="#B7AEAE" />
          <stop offset="1" stop-color="#C4C4C4" stop-opacity="0.67" />
        </linearGradient>
        <linearGradient
          id="paint7_linear_4674_35274"
          x1="55.9745"
          y1="186.908"
          x2="55.9745"
          y2="61.0424"
          gradientUnits="userSpaceOnUse"
        >
          <stop stop-color="#B7AEAE" />
          <stop offset="1" stop-color="#C4C4C4" stop-opacity="0.67" />
        </linearGradient>
        <linearGradient
          id="paint8_linear_4674_35274"
          x1="162.639"
          y1="186.908"
          x2="162.639"
          y2="61.0424"
          gradientUnits="userSpaceOnUse"
        >
          <stop stop-color="#B7AEAE" />
          <stop offset="1" stop-color="#C4C4C4" stop-opacity="0.67" />
        </linearGradient>
        <linearGradient
          id="paint9_linear_4674_35274"
          x1="269.303"
          y1="186.908"
          x2="269.303"
          y2="61.0424"
          gradientUnits="userSpaceOnUse"
        >
          <stop stop-color="#B7AEAE" />
          <stop offset="1" stop-color="#C4C4C4" stop-opacity="0.67" />
        </linearGradient>
        <linearGradient
          id="paint10_linear_4674_35274"
          x1="375.971"
          y1="186.908"
          x2="375.971"
          y2="61.0424"
          gradientUnits="userSpaceOnUse"
        >
          <stop stop-color="#B7AEAE" />
          <stop offset="1" stop-color="#C4C4C4" stop-opacity="0.67" />
        </linearGradient>
        <linearGradient
          id="paint11_linear_4674_35274"
          x1="482.638"
          y1="186.908"
          x2="482.638"
          y2="61.0424"
          gradientUnits="userSpaceOnUse"
        >
          <stop stop-color="#B7AEAE" />
          <stop offset="1" stop-color="#C4C4C4" stop-opacity="0.67" />
        </linearGradient>
        <linearGradient
          id="paint12_linear_4674_35274"
          x1="2.63554"
          y1="280.773"
          x2="2.63554"
          y2="154.907"
          gradientUnits="userSpaceOnUse"
        >
          <stop stop-color="#B7AEAE" />
          <stop offset="1" stop-color="#C4C4C4" stop-opacity="0.67" />
        </linearGradient>
        <linearGradient
          id="paint13_linear_4674_35274"
          x1="109.3"
          y1="280.773"
          x2="109.3"
          y2="154.907"
          gradientUnits="userSpaceOnUse"
        >
          <stop stop-color="#B7AEAE" />
          <stop offset="1" stop-color="#C4C4C4" stop-opacity="0.67" />
        </linearGradient>
        <linearGradient
          id="paint14_linear_4674_35274"
          x1="215.967"
          y1="280.773"
          x2="215.967"
          y2="154.907"
          gradientUnits="userSpaceOnUse"
        >
          <stop stop-color="#B7AEAE" />
          <stop offset="1" stop-color="#C4C4C4" stop-opacity="0.67" />
        </linearGradient>
        <linearGradient
          id="paint15_linear_4674_35274"
          x1="322.635"
          y1="280.773"
          x2="322.635"
          y2="154.907"
          gradientUnits="userSpaceOnUse"
        >
          <stop stop-color="#B7AEAE" />
          <stop offset="1" stop-color="#C4C4C4" stop-opacity="0.67" />
        </linearGradient>
        <linearGradient
          id="paint16_linear_4674_35274"
          x1="429.299"
          y1="280.773"
          x2="429.299"
          y2="154.907"
          gradientUnits="userSpaceOnUse"
        >
          <stop stop-color="#B7AEAE" />
          <stop offset="1" stop-color="#C4C4C4" stop-opacity="0.67" />
        </linearGradient>
        <linearGradient
          id="paint17_linear_4674_35274"
          x1="535.967"
          y1="280.773"
          x2="535.967"
          y2="154.907"
          gradientUnits="userSpaceOnUse"
        >
          <stop stop-color="#B7AEAE" />
          <stop offset="1" stop-color="#C4C4C4" stop-opacity="0.67" />
        </linearGradient>
        <linearGradient
          id="paint18_linear_4674_35274"
          x1="-50.6932"
          y1="374.633"
          x2="-50.6932"
          y2="248.767"
          gradientUnits="userSpaceOnUse"
        >
          <stop stop-color="#B7AEAE" />
          <stop offset="1" stop-color="#C4C4C4" stop-opacity="0.67" />
        </linearGradient>
        <linearGradient
          id="paint19_linear_4674_35274"
          x1="55.9745"
          y1="374.633"
          x2="55.9745"
          y2="248.767"
          gradientUnits="userSpaceOnUse"
        >
          <stop stop-color="#B7AEAE" />
          <stop offset="1" stop-color="#C4C4C4" stop-opacity="0.67" />
        </linearGradient>
        <linearGradient
          id="paint20_linear_4674_35274"
          x1="162.639"
          y1="374.633"
          x2="162.639"
          y2="248.767"
          gradientUnits="userSpaceOnUse"
        >
          <stop stop-color="#B7AEAE" />
          <stop offset="1" stop-color="#C4C4C4" stop-opacity="0.67" />
        </linearGradient>
        <linearGradient
          id="paint21_linear_4674_35274"
          x1="269.303"
          y1="374.633"
          x2="269.303"
          y2="248.767"
          gradientUnits="userSpaceOnUse"
        >
          <stop stop-color="#B7AEAE" />
          <stop offset="1" stop-color="#C4C4C4" stop-opacity="0.67" />
        </linearGradient>
        <linearGradient
          id="paint22_linear_4674_35274"
          x1="375.971"
          y1="374.633"
          x2="375.971"
          y2="248.767"
          gradientUnits="userSpaceOnUse"
        >
          <stop stop-color="#B7AEAE" />
          <stop offset="1" stop-color="#C4C4C4" stop-opacity="0.67" />
        </linearGradient>
        <linearGradient
          id="paint23_linear_4674_35274"
          x1="482.638"
          y1="374.633"
          x2="482.638"
          y2="248.767"
          gradientUnits="userSpaceOnUse"
        >
          <stop stop-color="#B7AEAE" />
          <stop offset="1" stop-color="#C4C4C4" stop-opacity="0.67" />
        </linearGradient>
        <linearGradient
          id="paint24_linear_4674_35274"
          x1="2.63554"
          y1="468.503"
          x2="2.63554"
          y2="342.637"
          gradientUnits="userSpaceOnUse"
        >
          <stop stop-color="#B7AEAE" />
          <stop offset="1" stop-color="#C4C4C4" stop-opacity="0.67" />
        </linearGradient>
        <linearGradient
          id="paint25_linear_4674_35274"
          x1="109.303"
          y1="468.503"
          x2="109.303"
          y2="342.637"
          gradientUnits="userSpaceOnUse"
        >
          <stop stop-color="#B7AEAE" />
          <stop offset="1" stop-color="#C4C4C4" stop-opacity="0.67" />
        </linearGradient>
        <linearGradient
          id="paint26_linear_4674_35274"
          x1="215.971"
          y1="468.503"
          x2="215.971"
          y2="342.637"
          gradientUnits="userSpaceOnUse"
        >
          <stop stop-color="#B7AEAE" />
          <stop offset="1" stop-color="#C4C4C4" stop-opacity="0.67" />
        </linearGradient>
        <linearGradient
          id="paint27_linear_4674_35274"
          x1="322.635"
          y1="468.503"
          x2="322.635"
          y2="342.637"
          gradientUnits="userSpaceOnUse"
        >
          <stop stop-color="#B7AEAE" />
          <stop offset="1" stop-color="#C4C4C4" stop-opacity="0.67" />
        </linearGradient>
        <linearGradient
          id="paint28_linear_4674_35274"
          x1="429.299"
          y1="468.503"
          x2="429.299"
          y2="342.637"
          gradientUnits="userSpaceOnUse"
        >
          <stop stop-color="#B7AEAE" />
          <stop offset="1" stop-color="#C4C4C4" stop-opacity="0.67" />
        </linearGradient>
        <linearGradient
          id="paint29_linear_4674_35274"
          x1="535.967"
          y1="468.503"
          x2="535.967"
          y2="342.637"
          gradientUnits="userSpaceOnUse"
        >
          <stop stop-color="#B7AEAE" />
          <stop offset="1" stop-color="#C4C4C4" stop-opacity="0.67" />
        </linearGradient>
        <linearGradient
          id="paint30_linear_4674_35274"
          x1="-50.6932"
          y1="562.368"
          x2="-50.6932"
          y2="436.502"
          gradientUnits="userSpaceOnUse"
        >
          <stop stop-color="#B7AEAE" />
          <stop offset="1" stop-color="#C4C4C4" stop-opacity="0.67" />
        </linearGradient>
        <linearGradient
          id="paint31_linear_4674_35274"
          x1="55.9745"
          y1="562.368"
          x2="55.9745"
          y2="436.502"
          gradientUnits="userSpaceOnUse"
        >
          <stop stop-color="#B7AEAE" />
          <stop offset="1" stop-color="#C4C4C4" stop-opacity="0.67" />
        </linearGradient>
        <linearGradient
          id="paint32_linear_4674_35274"
          x1="162.639"
          y1="562.368"
          x2="162.639"
          y2="436.502"
          gradientUnits="userSpaceOnUse"
        >
          <stop stop-color="#B7AEAE" />
          <stop offset="1" stop-color="#C4C4C4" stop-opacity="0.67" />
        </linearGradient>
        <linearGradient
          id="paint33_linear_4674_35274"
          x1="269.303"
          y1="562.368"
          x2="269.303"
          y2="436.502"
          gradientUnits="userSpaceOnUse"
        >
          <stop stop-color="#B7AEAE" />
          <stop offset="1" stop-color="#C4C4C4" stop-opacity="0.67" />
        </linearGradient>
        <linearGradient
          id="paint34_linear_4674_35274"
          x1="375.971"
          y1="562.368"
          x2="375.971"
          y2="436.502"
          gradientUnits="userSpaceOnUse"
        >
          <stop stop-color="#B7AEAE" />
          <stop offset="1" stop-color="#C4C4C4" stop-opacity="0.67" />
        </linearGradient>
        <linearGradient
          id="paint35_linear_4674_35274"
          x1="482.638"
          y1="562.368"
          x2="482.638"
          y2="436.502"
          gradientUnits="userSpaceOnUse"
        >
          <stop stop-color="#B7AEAE" />
          <stop offset="1" stop-color="#C4C4C4" stop-opacity="0.67" />
        </linearGradient>
        <linearGradient
          id="paint36_linear_4674_35274"
          x1="2.63579"
          y1="656.233"
          x2="2.63579"
          y2="530.367"
          gradientUnits="userSpaceOnUse"
        >
          <stop stop-color="#B7AEAE" />
          <stop offset="1" stop-color="#C4C4C4" stop-opacity="0.67" />
        </linearGradient>
        <linearGradient
          id="paint37_linear_4674_35274"
          x1="109.303"
          y1="656.233"
          x2="109.303"
          y2="530.367"
          gradientUnits="userSpaceOnUse"
        >
          <stop stop-color="#B7AEAE" />
          <stop offset="1" stop-color="#C4C4C4" stop-opacity="0.67" />
        </linearGradient>
        <linearGradient
          id="paint38_linear_4674_35274"
          x1="215.971"
          y1="656.233"
          x2="215.971"
          y2="530.367"
          gradientUnits="userSpaceOnUse"
        >
          <stop stop-color="#B7AEAE" />
          <stop offset="1" stop-color="#C4C4C4" stop-opacity="0.67" />
        </linearGradient>
        <linearGradient
          id="paint39_linear_4674_35274"
          x1="322.635"
          y1="656.233"
          x2="322.635"
          y2="530.367"
          gradientUnits="userSpaceOnUse"
        >
          <stop stop-color="#B7AEAE" />
          <stop offset="1" stop-color="#C4C4C4" stop-opacity="0.67" />
        </linearGradient>
        <linearGradient
          id="paint40_linear_4674_35274"
          x1="429.3"
          y1="656.233"
          x2="429.3"
          y2="530.367"
          gradientUnits="userSpaceOnUse"
        >
          <stop stop-color="#B7AEAE" />
          <stop offset="1" stop-color="#C4C4C4" stop-opacity="0.67" />
        </linearGradient>
        <linearGradient
          id="paint41_linear_4674_35274"
          x1="535.967"
          y1="656.233"
          x2="535.967"
          y2="530.367"
          gradientUnits="userSpaceOnUse"
        >
          <stop stop-color="#B7AEAE" />
          <stop offset="1" stop-color="#C4C4C4" stop-opacity="0.67" />
        </linearGradient>
        <linearGradient
          id="paint42_linear_4674_35274"
          x1="-50.6932"
          y1="750.097"
          x2="-50.6932"
          y2="624.231"
          gradientUnits="userSpaceOnUse"
        >
          <stop stop-color="#B7AEAE" />
          <stop offset="1" stop-color="#C4C4C4" stop-opacity="0.67" />
        </linearGradient>
        <linearGradient
          id="paint43_linear_4674_35274"
          x1="55.9745"
          y1="750.097"
          x2="55.9745"
          y2="624.231"
          gradientUnits="userSpaceOnUse"
        >
          <stop stop-color="#B7AEAE" />
          <stop offset="1" stop-color="#C4C4C4" stop-opacity="0.67" />
        </linearGradient>
        <linearGradient
          id="paint44_linear_4674_35274"
          x1="162.639"
          y1="750.097"
          x2="162.639"
          y2="624.231"
          gradientUnits="userSpaceOnUse"
        >
          <stop stop-color="#B7AEAE" />
          <stop offset="1" stop-color="#C4C4C4" stop-opacity="0.67" />
        </linearGradient>
        <linearGradient
          id="paint45_linear_4674_35274"
          x1="269.303"
          y1="750.097"
          x2="269.303"
          y2="624.231"
          gradientUnits="userSpaceOnUse"
        >
          <stop stop-color="#B7AEAE" />
          <stop offset="1" stop-color="#C4C4C4" stop-opacity="0.67" />
        </linearGradient>
        <linearGradient
          id="paint46_linear_4674_35274"
          x1="375.971"
          y1="750.097"
          x2="375.971"
          y2="624.231"
          gradientUnits="userSpaceOnUse"
        >
          <stop stop-color="#B7AEAE" />
          <stop offset="1" stop-color="#C4C4C4" stop-opacity="0.67" />
        </linearGradient>
        <linearGradient
          id="paint47_linear_4674_35274"
          x1="482.638"
          y1="750.097"
          x2="482.638"
          y2="624.231"
          gradientUnits="userSpaceOnUse"
        >
          <stop stop-color="#B7AEAE" />
          <stop offset="1" stop-color="#C4C4C4" stop-opacity="0.67" />
        </linearGradient>
        <linearGradient
          id="paint48_linear_4674_35274"
          x1="2.63579"
          y1="843.962"
          x2="2.63579"
          y2="718.096"
          gradientUnits="userSpaceOnUse"
        >
          <stop stop-color="#B7AEAE" />
          <stop offset="1" stop-color="#C4C4C4" stop-opacity="0.67" />
        </linearGradient>
        <linearGradient
          id="paint49_linear_4674_35274"
          x1="109.303"
          y1="843.962"
          x2="109.303"
          y2="718.096"
          gradientUnits="userSpaceOnUse"
        >
          <stop stop-color="#B7AEAE" />
          <stop offset="1" stop-color="#C4C4C4" stop-opacity="0.67" />
        </linearGradient>
        <linearGradient
          id="paint50_linear_4674_35274"
          x1="215.971"
          y1="843.962"
          x2="215.971"
          y2="718.096"
          gradientUnits="userSpaceOnUse"
        >
          <stop stop-color="#B7AEAE" />
          <stop offset="1" stop-color="#C4C4C4" stop-opacity="0.67" />
        </linearGradient>
        <linearGradient
          id="paint51_linear_4674_35274"
          x1="322.635"
          y1="843.962"
          x2="322.635"
          y2="718.096"
          gradientUnits="userSpaceOnUse"
        >
          <stop stop-color="#B7AEAE" />
          <stop offset="1" stop-color="#C4C4C4" stop-opacity="0.67" />
        </linearGradient>
        <linearGradient
          id="paint52_linear_4674_35274"
          x1="429.3"
          y1="843.962"
          x2="429.3"
          y2="718.096"
          gradientUnits="userSpaceOnUse"
        >
          <stop stop-color="#B7AEAE" />
          <stop offset="1" stop-color="#C4C4C4" stop-opacity="0.67" />
        </linearGradient>
        <linearGradient
          id="paint53_linear_4674_35274"
          x1="535.968"
          y1="843.962"
          x2="535.968"
          y2="718.096"
          gradientUnits="userSpaceOnUse"
        >
          <stop stop-color="#B7AEAE" />
          <stop offset="1" stop-color="#C4C4C4" stop-opacity="0.67" />
        </linearGradient>
        <linearGradient
          id="paint54_linear_4674_35274"
          x1="-50.6932"
          y1="937.832"
          x2="-50.6932"
          y2="811.966"
          gradientUnits="userSpaceOnUse"
        >
          <stop stop-color="#B7AEAE" />
          <stop offset="1" stop-color="#C4C4C4" stop-opacity="0.67" />
        </linearGradient>
        <linearGradient
          id="paint55_linear_4674_35274"
          x1="55.9745"
          y1="937.832"
          x2="55.9745"
          y2="811.966"
          gradientUnits="userSpaceOnUse"
        >
          <stop stop-color="#B7AEAE" />
          <stop offset="1" stop-color="#C4C4C4" stop-opacity="0.67" />
        </linearGradient>
        <linearGradient
          id="paint56_linear_4674_35274"
          x1="162.639"
          y1="937.832"
          x2="162.639"
          y2="811.966"
          gradientUnits="userSpaceOnUse"
        >
          <stop stop-color="#B7AEAE" />
          <stop offset="1" stop-color="#C4C4C4" stop-opacity="0.67" />
        </linearGradient>
        <linearGradient
          id="paint57_linear_4674_35274"
          x1="269.303"
          y1="937.832"
          x2="269.303"
          y2="811.966"
          gradientUnits="userSpaceOnUse"
        >
          <stop stop-color="#B7AEAE" />
          <stop offset="1" stop-color="#C4C4C4" stop-opacity="0.67" />
        </linearGradient>
        <linearGradient
          id="paint58_linear_4674_35274"
          x1="375.971"
          y1="937.832"
          x2="375.971"
          y2="811.966"
          gradientUnits="userSpaceOnUse"
        >
          <stop stop-color="#B7AEAE" />
          <stop offset="1" stop-color="#C4C4C4" stop-opacity="0.67" />
        </linearGradient>
        <linearGradient
          id="paint59_linear_4674_35274"
          x1="482.638"
          y1="937.832"
          x2="482.638"
          y2="811.966"
          gradientUnits="userSpaceOnUse"
        >
          <stop stop-color="#B7AEAE" />
          <stop offset="1" stop-color="#C4C4C4" stop-opacity="0.67" />
        </linearGradient>
      </defs>
    </svg>


