<svg width="13" height="13" viewBox="0 0 13 13" fill="none" xmlns="http://www.w3.org/2000/svg">
<path d="M11.4822 7.30927C11.2669 7.30927 11.0855 7.23551 10.938 7.08799C10.7905 6.94048 10.7168 6.75908 10.7168 6.54378C10.7168 5.71451 10.5114 4.94703 10.1008 4.24135C9.69013 3.53568 9.13197 2.97751 8.42629 2.56686C7.72061 2.15621 6.95313 1.95089 6.12386 1.95089C5.91654 1.95089 5.73713 1.87713 5.58563 1.72961C5.43413 1.5821 5.35838 1.40269 5.35838 1.19138C5.35838 0.98008 5.43413 0.798676 5.58563 0.647175C5.73713 0.495673 5.91654 0.419922 6.12386 0.419922C6.95313 0.419922 7.74652 0.581391 8.50403 0.904329C9.26154 1.22727 9.9134 1.66184 10.4596 2.20804C11.0058 2.75425 11.4404 3.4061 11.7633 4.16361C12.0863 4.92112 12.2477 5.71451 12.2477 6.54378C12.2477 6.75908 12.174 6.94048 12.0265 7.08799C11.8789 7.23551 11.6975 7.30927 11.4822 7.30927ZM9.19177 7.30927C8.98047 7.30927 8.79906 7.23551 8.64756 7.08799C8.49606 6.94048 8.42031 6.75908 8.42031 6.54378C8.42031 5.90588 8.19704 5.36366 7.75051 4.91713C7.30398 4.4706 6.76176 4.24734 6.12386 4.24734C5.91654 4.24734 5.73713 4.17358 5.58563 4.02606C5.43413 3.87855 5.35838 3.69914 5.35838 3.48783C5.35838 3.27653 5.43413 3.09512 5.58563 2.94362C5.73713 2.79212 5.91654 2.71637 6.12386 2.71637C6.81758 2.71637 7.45748 2.88781 8.04355 3.23068C8.62962 3.57355 9.09409 4.03802 9.43697 4.6241C9.77984 5.21017 9.95127 5.85006 9.95127 6.54378C9.95127 6.75908 9.87752 6.94048 9.73 7.08799C9.58249 7.23551 9.40308 7.30927 9.19177 7.30927ZM7.65483 6.54378C7.65483 7.07005 7.43953 7.48469 7.00895 7.78769L9.72402 10.5147C9.87552 10.6583 9.95127 10.8357 9.95127 11.047C9.95127 11.2583 9.87552 11.4397 9.72402 11.5912C9.45291 11.8703 9.05821 12.0935 8.53992 12.261C8.02162 12.4284 7.53921 12.5381 7.09268 12.5899C6.64614 12.6417 6.19563 12.6676 5.74112 12.6676C5.30256 12.6676 4.85603 12.6278 4.40153 12.548C3.94702 12.4683 3.44866 12.3068 2.90644 12.0636C2.36423 11.8204 1.90573 11.5114 1.53097 11.1367C1.1562 10.7619 0.849207 10.3034 0.609994 9.7612C0.370781 9.21899 0.209312 8.71863 0.125587 8.26014C0.0418623 7.80165 0 7.35711 0 6.92652C0 6.46405 0.0239213 6.00954 0.071764 5.56301C0.119607 5.11648 0.229246 4.63606 0.400682 4.12175C0.572119 3.60744 0.797378 3.21074 1.07646 2.93166C1.22796 2.78016 1.40937 2.70441 1.62067 2.70441C1.83198 2.70441 2.00939 2.78016 2.15292 2.93166L4.87995 5.65869C5.18296 5.22811 5.59759 5.01282 6.12386 5.01282C6.54647 5.01282 6.90729 5.16233 7.2063 5.46134C7.50532 5.76036 7.65483 6.12117 7.65483 6.54378Z" fill="#575757"/>
</svg>
