<svg width="50" height="50" viewBox="0 0 50 50" fill="none" xmlns="http://www.w3.org/2000/svg">
<path d="M38.1474 13.6742C38.8698 15.4182 39.2416 17.2873 39.2416 19.175C39.2417 21.916 38.4548 24.5993 36.9745 26.9062H36.9889L24.8674 45.8699L12.7458 26.9062H12.7622C11.333 24.6721 10.4932 22.0231 10.4932 19.175C10.4932 17.2873 10.865 15.4182 11.5873 13.6742C12.3097 11.9303 13.3685 10.3457 14.7033 9.01089C16.038 7.67612 17.6226 6.61732 19.3666 5.89495C21.1105 5.17258 22.9797 4.80078 24.8674 4.80078C26.755 4.80078 28.6242 5.17258 30.3681 5.89495C32.1121 6.61732 33.6967 7.67612 35.0315 9.01089C36.3662 10.3457 37.425 11.9303 38.1474 13.6742Z" fill="url(#paint0_linear_2293_23194)"/>
<path d="M24.7133 26.6556C25.1972 26.6556 25.619 26.5902 25.9787 26.4594C26.3384 26.3286 26.6359 26.1455 26.8713 25.9101C27.1067 25.6682 27.28 25.3804 27.3912 25.0469C27.5089 24.7134 27.5677 24.3407 27.5677 23.9287C27.5677 23.3598 27.3814 22.9086 27.0086 22.5751C26.6424 22.2416 26.0637 22.0748 25.2724 22.0748H22.7025L22.1434 26.6556H24.7133ZM23.448 16.0129L22.8987 20.525H24.9586C25.9264 20.525 26.6588 20.2929 27.1558 19.8286C27.6528 19.3643 27.9012 18.7038 27.9012 17.8472C27.9012 17.2128 27.7149 16.7486 27.3421 16.4543C26.9694 16.16 26.3972 16.0129 25.6256 16.0129H23.448ZM25.8217 14.2767C26.5803 14.2767 27.231 14.3519 27.7737 14.5023C28.323 14.6527 28.771 14.8685 29.1176 15.1497C29.4707 15.4243 29.729 15.7579 29.8925 16.1502C30.0559 16.5426 30.1377 16.9807 30.1377 17.4646C30.1377 17.8766 30.0788 18.2689 29.9611 18.6417C29.85 19.0144 29.6767 19.361 29.4413 19.6814C29.2124 19.9953 28.9214 20.2765 28.5683 20.525C28.2151 20.7735 27.7966 20.9762 27.3127 21.1332C28.1301 21.3293 28.7383 21.6596 29.1372 22.1239C29.5426 22.5882 29.7453 23.1767 29.7453 23.8895C29.7453 24.5434 29.6244 25.145 29.3824 25.6943C29.147 26.2436 28.8037 26.721 28.3525 27.1264C27.9078 27.5253 27.3618 27.8392 26.7144 28.0681C26.0735 28.2904 25.3476 28.4016 24.5368 28.4016H19.7206L21.4568 14.2767H25.8217Z" fill="white"/>
<defs>
<linearGradient id="paint0_linear_2293_23194" x1="16.0752" y1="4.80078" x2="43.0541" y2="84.0839" gradientUnits="userSpaceOnUse">
<stop stop-color="#FF6BF9"/>
<stop offset="1" stop-color="#6659FF"/>
</linearGradient>
</defs>
</svg>
