<svg width="21" height="30" viewBox="0 0 21 30" fill="none" xmlns="http://www.w3.org/2000/svg">
<g clip-path="url(#clip0_1279_31811)">
<g filter="url(#filter0_d_1279_31811)">
<path d="M20.7523 11.341C20.7523 16.0643 14.4293 24.4733 11.657 27.9428C10.9922 28.7697 9.76007 28.7697 9.09534 27.9428C6.27433 24.4733 0 16.0643 0 11.341C0 5.61033 4.64549 0.964844 10.3762 0.964844C16.1047 0.964844 20.7523 5.61033 20.7523 11.341Z" fill="#F2F3F5"/>
<path d="M9.48504 27.6296L9.48329 27.6274C8.08039 25.902 5.82128 22.9511 3.91578 19.8503C2.96296 18.2998 2.10443 16.7212 1.48549 15.2463C0.863134 13.7632 0.5 12.4241 0.5 11.341C0.5 5.88648 4.92163 1.46484 10.3762 1.46484C15.8286 1.46484 20.2523 5.88654 20.2523 11.341C20.2523 12.4234 19.8865 13.7621 19.2604 15.2453C18.6377 16.7203 17.7746 18.2989 16.8186 19.8497C14.9071 22.9506 12.6479 25.9018 11.2668 27.6301C10.8021 28.2074 9.94946 28.2073 9.48504 27.6296Z" stroke="#716D6D"/>
</g>
<path d="M16.0302 12.2214L10.6998 6.89475C10.6614 6.85629 10.6158 6.82579 10.5656 6.80497C10.5154 6.78415 10.4616 6.77344 10.4073 6.77344C10.3529 6.77344 10.2991 6.78415 10.249 6.80497C10.1988 6.82579 10.1532 6.85629 10.1148 6.89475L4.78431 12.2214C4.62902 12.3767 4.54102 12.5876 4.54102 12.8076C4.54102 13.2644 4.91243 13.6358 5.36925 13.6358H5.9309V17.4367C5.9309 17.6657 6.11596 17.8508 6.34502 17.8508H9.57904V14.952H11.0285V17.8508H14.4695C14.6986 17.8508 14.8837 17.6657 14.8837 17.4367V13.6358H15.4453C15.6653 13.6358 15.8762 13.5491 16.0315 13.3925C16.3538 13.069 16.3538 12.5449 16.0302 12.2214Z" fill="#3E3E3E"/>
</g>
<defs>
<filter id="filter0_d_1279_31811" x="-0.730315" y="0.964844" width="22.2131" height="29.0583" filterUnits="userSpaceOnUse" color-interpolation-filters="sRGB">
<feFlood flood-opacity="0" result="BackgroundImageFix"/>
<feColorMatrix in="SourceAlpha" type="matrix" values="0 0 0 0 0 0 0 0 0 0 0 0 0 0 0 0 0 0 127 0" result="hardAlpha"/>
<feOffset dy="0.730315"/>
<feGaussianBlur stdDeviation="0.365157"/>
<feComposite in2="hardAlpha" operator="out"/>
<feColorMatrix type="matrix" values="0 0 0 0 0 0 0 0 0 0 0 0 0 0 0 0 0 0 0.25 0"/>
<feBlend mode="normal" in2="BackgroundImageFix" result="effect1_dropShadow_1279_31811"/>
<feBlend mode="normal" in="SourceGraphic" in2="effect1_dropShadow_1279_31811" result="shape"/>
</filter>
<clipPath id="clip0_1279_31811">
<rect width="20.814" height="29.03" fill="white" transform="translate(0 0.964844)"/>
</clipPath>
</defs>
</svg>