<svg width="27" height="13" viewBox="0 0 27 13" fill="none" xmlns="http://www.w3.org/2000/svg">
<path d="M3.97836 0.880859C3.12432 0.880859 2.30525 1.19814 1.70135 1.7629C1.09745 2.32766 0.758179 3.09364 0.758179 3.89234L0.758179 9.9153C0.758179 10.714 1.09745 11.48 1.70135 12.0447C2.30525 12.6095 3.12432 12.9268 3.97836 12.9268H20.0793C20.9333 12.9268 21.7524 12.6095 22.3563 12.0447C22.9602 11.48 23.2995 10.714 23.2995 9.9153V3.89234C23.2995 3.09364 22.9602 2.32766 22.3563 1.7629C21.7524 1.19814 20.9333 0.880859 20.0793 0.880859H3.97836ZM20.0793 2.3866C20.5063 2.3866 20.9158 2.54524 21.2178 2.82762C21.5197 3.11 21.6894 3.49299 21.6894 3.89234V9.9153C21.6894 10.3146 21.5197 10.6976 21.2178 10.98C20.9158 11.2624 20.5063 11.421 20.0793 11.421H3.97836C3.55134 11.421 3.14181 11.2624 2.83986 10.98C2.5379 10.6976 2.36827 10.3146 2.36827 9.9153V3.89234C2.36827 3.49299 2.5379 3.11 2.83986 2.82762C3.14181 2.54524 3.55134 2.3866 3.97836 2.3866H20.0793ZM26.5196 6.90382C26.5196 7.50284 26.2652 8.07732 25.8123 8.5009C25.3593 8.92447 24.745 9.16243 24.1045 9.16243V4.64521C24.745 4.64521 25.3593 4.88317 25.8123 5.30674C26.2652 5.73031 26.5196 6.3048 26.5196 6.90382Z" fill="black"/>
</svg>
