<svg width="15" height="13" viewBox="0 0 15 13" fill="none" xmlns="http://www.w3.org/2000/svg">
<path d="M4.62479 7.41375H3.49008C3.2811 7.41375 3.11184 7.58301 3.11184 7.79198V12.3308C3.11184 12.5398 3.2811 12.7091 3.49008 12.7091H4.62479C4.83377 12.7091 5.00303 12.5398 5.00303 12.3308V7.79198C5.00303 7.58301 4.83377 7.41375 4.62479 7.41375ZM1.59889 9.68317H0.464175C0.255199 9.68317 0.0859375 9.85243 0.0859375 10.0614V12.3308C0.0859375 12.5398 0.255199 12.7091 0.464175 12.7091H1.59889C1.80786 12.7091 1.97713 12.5398 1.97713 12.3308V10.0614C1.97713 9.85243 1.80786 9.68317 1.59889 9.68317ZM7.65069 5.14432H6.51598C6.307 5.14432 6.13774 5.31358 6.13774 5.52256V12.3308C6.13774 12.5398 6.307 12.7091 6.51598 12.7091H7.65069C7.85967 12.7091 8.02893 12.5398 8.02893 12.3308V5.52256C8.02893 5.31358 7.85967 5.14432 7.65069 5.14432ZM10.6766 2.87489H9.54188C9.3329 2.87489 9.16364 3.04416 9.16364 3.25313V12.3308C9.16364 12.5398 9.3329 12.7091 9.54188 12.7091H10.6766C10.8856 12.7091 11.0548 12.5398 11.0548 12.3308V3.25313C11.0548 3.04416 10.8856 2.87489 10.6766 2.87489ZM13.7025 0.605469H12.5678C12.3588 0.605469 12.1895 0.77473 12.1895 0.983706V12.3308C12.1895 12.5398 12.3588 12.7091 12.5678 12.7091H13.7025C13.9115 12.7091 14.0807 12.5398 14.0807 12.3308V0.983706C14.0807 0.77473 13.9115 0.605469 13.7025 0.605469Z" fill="black"/>
</svg>
